<svg xmlns="http://www.w3.org/2000/svg" viewBox="0 0 39.76 39.76"><defs><style>.cls-1{fill:#134e4d;}</style></defs><g id="Capa_2" data-name="Capa 2"><g id="Contact_Section" data-name="Contact Section"><path class="cls-1" d="M5.11,0H34.66a5.11,5.11,0,0,1,5.1,5.1V34.66a5.11,5.11,0,0,1-5.1,5.1H5.11A5.12,5.12,0,0,1,0,34.66V5.1A5.12,5.12,0,0,1,5.11,0ZM29,4.42a1.79,1.79,0,0,0-1.79,1.79v4.28A1.79,1.79,0,0,0,29,12.28h4.49a1.79,1.79,0,0,0,1.79-1.79V6.21a1.79,1.79,0,0,0-1.79-1.79Zm6.3,12.39h-3.5a11.75,11.75,0,0,1,.51,3.42,12.17,12.17,0,0,1-12.36,12,12.17,12.17,0,0,1-12.36-12,11.75,11.75,0,0,1,.51-3.42H4.42v16.8A1.58,1.58,0,0,0,6,35.19H33.69a1.58,1.58,0,0,0,1.58-1.58ZM19.92,12.06a7.87,7.87,0,0,0-8,7.74,7.86,7.86,0,0,0,8,7.73,7.86,7.86,0,0,0,8-7.73A7.87,7.87,0,0,0,19.92,12.06Z"/></g></g></svg>