<svg xmlns="http://www.w3.org/2000/svg" viewBox="0 0 33.74 33.74"><defs><style>.cls-1{fill:#134e4d;}</style></defs><g id="Capa_2" data-name="Capa 2"><g id="Contact_Section" data-name="Contact Section"><path class="cls-1" d="M33.38,25.59c-1.25-2.38-5.62-4.95-5.81-5.06A3.44,3.44,0,0,0,25.88,20,2.09,2.09,0,0,0,24,21.09a20.07,20.07,0,0,1-1.63,1.79,2.68,2.68,0,0,1-3.93-.39L11.25,15.3a2.69,2.69,0,0,1-.39-3.93,20.07,20.07,0,0,1,1.79-1.63,2.09,2.09,0,0,0,1-1.24,3.12,3.12,0,0,0-.41-2.34C13.1,6,10.53,1.61,8.15.36A3,3,0,0,0,6.71,0,3.07,3.07,0,0,0,4.53.9L2.94,2.49A8.67,8.67,0,0,0,.24,11c.6,2.58,2.34,5.33,5.18,8.17l9.2,9.2c3.59,3.6,7,5.42,10.18,5.42h0a9,9,0,0,0,6.45-2.94l1.59-1.59A3.06,3.06,0,0,0,33.38,25.59Z"/></g></g></svg>