<svg xmlns="http://www.w3.org/2000/svg" viewBox="0 0 44.47 36.41"><defs><style>.cls-1{fill:#134e4d;}</style></defs><g id="Capa_2" data-name="Capa 2"><g id="Contact_Section" data-name="Contact Section"><path class="cls-1" d="M43.47,4.2A18,18,0,0,1,41.31,5a9.48,9.48,0,0,0,1.94-3.41.72.72,0,0,0-1-.83,17.1,17.1,0,0,1-5,2A9.55,9.55,0,0,0,21,9.55a8.47,8.47,0,0,0,.08,1.23A24.4,24.4,0,0,1,4.27,1.88a.72.72,0,0,0-.61-.26A.73.73,0,0,0,3.09,2a9.57,9.57,0,0,0,1,11,7.24,7.24,0,0,1-1.27-.57.72.72,0,0,0-.71,0,.71.71,0,0,0-.36.6v.13A9.6,9.6,0,0,0,6.4,21.34a6,6,0,0,1-.72-.11.75.75,0,0,0-.68.23.74.74,0,0,0-.14.7,9.56,9.56,0,0,0,7,6.4,16.9,16.9,0,0,1-9,2.57A17.11,17.11,0,0,1,.8,31a.73.73,0,0,0-.76.48.72.72,0,0,0,.29.84,25.74,25.74,0,0,0,13.92,4.08A24.75,24.75,0,0,0,33.44,28a26.68,26.68,0,0,0,6.65-17.41c0-.26,0-.53,0-.79a18.72,18.72,0,0,0,4.27-4.52.72.72,0,0,0-.88-1.06Z"/></g></g></svg>